<svg width="164" height="49" viewBox="0 0 164 49" fill="none" xmlns="http://www.w3.org/2000/svg">
<rect width="164" height="49" fill="#A3A3A3"/>
<g clip-path="url(#clip0_0_1)">
<rect width="1440" height="895" transform="translate(-944 -157)" fill="white"/>
<path d="M44.6934 9.95112H27.3699L26.3867 6.89844H43.7131L44.6934 9.95112Z" fill="#F68122"/>
<path fill-rule="evenodd" clip-rule="evenodd" d="M26.0977 3.04983H42.4776L41.4973 0H27.078L26.0977 3.04983Z" fill="#F68122"/>
<path d="M16.9278 0L11.5742 16.657H14.7468L20.1032 0H16.9278Z" fill="#682F76"/>
<path fill-rule="evenodd" clip-rule="evenodd" d="M9.74742 0L5.35156 13.6671L7.91676 15.5518L12.92 0H9.74742Z" fill="#682F76"/>
<path d="M5.3514 13.6641L4.37109 16.7139L18.3892 27.0085L19.3696 23.9587L5.3514 13.6641Z" fill="#682F76"/>
<path d="M3.19906 20.375L2.21875 23.4248L16.2369 33.7194L17.2144 30.6696L3.19906 20.375Z" fill="#682F76"/>
<path fill-rule="evenodd" clip-rule="evenodd" d="M0.98031 27.2734L0 30.3233L11.4078 38.6989L13.973 36.817L0.98031 27.2734Z" fill="#682F76"/>
<path d="M34.3621 21.8438L31.7969 23.7285L37.1504 40.3826L39.7185 38.5007L34.3621 21.8438Z" fill="#682F76"/>
<path fill-rule="evenodd" clip-rule="evenodd" d="M36.1684 37.3438L22.8594 47.1186L25.4217 49.0033L37.1487 40.3879L36.1684 37.3438Z" fill="#682F76"/>
<path d="M31.065 32.5547L17.0469 42.8521L19.6121 44.7369L33.6302 34.4394L31.065 32.5547Z" fill="#682F76"/>
<path d="M11.4062 38.7058L13.9714 40.5905L27.9896 30.2959L25.4244 28.4141L11.4062 38.7058Z" fill="#682F76"/>
<path d="M40.0055 17.7031L37.4375 19.585L42.7911 36.242L45.3591 34.3601L40.0055 17.7031Z" fill="#682F76"/>
<path fill-rule="evenodd" clip-rule="evenodd" d="M46.8455 16.6562H43.6758L48.5999 31.9739L51.168 30.0921L46.8455 16.6562Z" fill="#682F76"/>
<path d="M23.9043 0L18.5508 16.657H21.7205L27.0769 0H23.9043Z" fill="#682F76"/>
<path d="M46.792 16.4879L45.8654 13.6094H28.5391L29.5194 16.6592H46.8457L46.792 16.4879Z" fill="#F68122"/>
<path d="M68.7093 3.01526H72.1757L66.9379 19.3952H63.4715L68.7093 3.01526ZM116.889 36.1293C117.629 36.1293 118.199 36.0151 118.603 35.7923C119.007 35.5667 119.315 35.1327 119.522 34.4873C119.666 34.0361 119.719 33.6906 119.685 33.4507C119.652 33.2108 119.519 33.0281 119.287 32.8996C119.055 32.7739 118.671 32.6426 118.14 32.5055L117.157 32.2571C115.855 31.9429 115.024 31.3861 114.665 30.5922C114.309 29.7955 114.326 28.776 114.725 27.5281C115.631 24.6896 117.651 23.2732 120.784 23.2732C121.629 23.2732 122.386 23.3046 123.061 23.3646C123.737 23.4245 124.514 23.5302 125.398 23.6787L124.511 26.2459C122.979 26.1403 121.68 26.086 120.615 26.086C119.832 26.086 119.239 26.1974 118.835 26.423C118.431 26.6486 118.132 27.0712 117.934 27.6852C117.778 28.1792 117.778 28.5304 117.942 28.7332C118.106 28.9331 118.513 29.1273 119.166 29.3072L120.38 29.667C121.669 30.0268 122.508 30.5551 122.898 31.2547C123.287 31.9515 123.273 32.9538 122.858 34.2617C122.335 35.898 121.525 37.0888 120.431 37.8313C119.335 38.5737 117.894 38.945 116.109 38.945C115.222 38.945 114.417 38.9079 113.685 38.8307C112.956 38.7536 112.157 38.6508 111.284 38.5166L112.193 35.9494C113.956 36.0693 115.527 36.1293 116.9 36.1293H116.889ZM107.591 33.8105C107.735 33.3593 107.715 33.0252 107.535 32.8082C107.354 32.5912 106.958 32.4827 106.354 32.4827H103.184L102.082 35.9266H105.207C106.345 35.9266 107.077 35.424 107.396 34.4188L107.591 33.8105ZM105.164 26.2888L104.015 29.8926H106.65C107.198 29.8926 107.628 29.7527 107.95 29.4757C108.266 29.1958 108.529 28.736 108.735 28.0907L108.899 27.5738C109.029 27.1683 109.026 26.8513 108.891 26.6286C108.755 26.403 108.439 26.2916 107.936 26.2916H105.164V26.2888ZM110.631 32.2685C110.956 32.7739 110.976 33.4821 110.682 34.3959L110.538 34.8471C110.103 36.215 109.433 37.1973 108.532 37.797C107.631 38.3967 106.376 38.6965 104.763 38.6965H97.983L102.836 23.5188H109.128C110.49 23.5188 111.45 23.7872 112.015 24.3298C112.58 24.8695 112.665 25.7633 112.267 27.0084L112.137 27.4139C111.524 29.3357 110.433 30.5294 108.865 30.9949L108.758 31.3318C109.679 31.4518 110.303 31.763 110.631 32.2656V32.2685ZM87.5301 34.9385C87.5103 35.2983 87.6685 35.5839 87.9991 35.7952C88.3296 36.0037 88.9455 36.1093 89.8467 36.1093C90.7479 36.1093 91.4316 36.0037 91.8977 35.7952C92.3638 35.5839 92.7029 35.2983 92.9147 34.9385C93.1238 34.5787 93.347 34.039 93.5758 33.3165L96.706 23.5188H99.9182L96.8162 33.2251C96.3698 34.6215 95.8867 35.7124 95.3698 36.5005C94.8528 37.2887 94.0928 37.897 93.0927 38.3253C92.0898 38.7536 90.7055 38.9678 88.9313 38.9678C87.1572 38.9678 85.9085 38.7536 85.1796 38.3253C84.4507 37.897 84.0835 37.2887 84.0693 36.5005C84.0552 35.7124 84.2728 34.6215 84.7163 33.2251L87.8183 23.5188H91.0304L87.8917 33.3393C87.6685 34.0447 87.5442 34.5758 87.5244 34.9385H87.5301ZM76.645 23.5216H79.8571L75.9189 35.8409H81.7697L80.8544 38.6994H71.7886L76.6421 23.5216H76.645ZM67.4577 31.4261L69.0483 26.4487C68.7488 26.3145 68.4126 26.2231 68.0369 26.1774C67.6612 26.1317 67.2148 26.1117 66.695 26.1117C65.7344 26.1117 64.9971 26.2402 64.4801 26.4944C63.9603 26.7485 63.5874 27.0912 63.3529 27.5195C63.1184 27.9479 62.8726 28.5761 62.607 29.3986L61.5702 32.6426C61.2595 33.6163 61.0871 34.3217 61.0504 34.7586C61.0137 35.1955 61.1888 35.5268 61.5702 35.7609C61.9516 35.9951 62.6692 36.1122 63.7173 36.1122C64.7089 36.1122 65.6977 36.0893 66.6865 36.0436C67.6696 36.0122 68.4013 35.998 68.8731 35.998L68.0369 38.6109C67.6442 38.6423 67.356 38.6708 67.1668 38.6994C65.1892 38.8793 63.6975 38.9707 62.6946 38.9707C60.8188 38.9707 59.4994 38.7165 58.7395 38.2054C57.9795 37.6942 57.6038 37.0031 57.6094 36.135C57.6151 35.264 57.8496 34.0989 58.3157 32.6454L59.3299 29.4699C59.7763 28.0735 60.282 26.9398 60.8498 26.0689C61.4149 25.1979 62.2313 24.5154 63.302 24.0185C64.3671 23.5216 65.7881 23.2761 67.5594 23.2761C68.3872 23.2761 69.3138 23.3589 70.3394 23.5245C71.3649 23.6901 72.1587 23.9072 72.7237 24.1784L70.4072 31.4289H67.4606L67.4577 31.4261ZM163.997 3.01526L158.759 19.3952H155.293L159.55 6.07651H158.545L152.615 19.3952H146.063L148.648 6.07651H147.643L143.385 19.3952H139.919L145.154 3.01526H152.544L149.937 16.3311H150.725L156.632 3.01526H163.997ZM128.929 15.3374C128.949 17.145 132.59 16.651 133.644 16.2597C135.887 15.3431 137.789 5.04848 138.834 3.01526H142.3L138.953 13.4898C137.749 18.016 135.19 19.8379 130.443 19.6865C125.624 19.8893 124.191 17.8875 125.895 13.4898L129.246 3.01812H132.712C132.401 4.20321 128.912 14.3779 128.929 15.3374ZM115.581 3.01526H126.22L125.234 6.10221H118.106L116.863 9.9916H123.655L122.708 12.9586H115.917L114.843 16.3111H122.042L121.056 19.3981H110.343L115.581 3.01812V3.01526ZM102.43 16.6224C104.297 17.0022 106.407 14.5521 105.015 13.1357C103.608 12.5103 100.514 12.2418 100.026 10.6427C98.8305 6.74473 102.271 2.39273 106.628 2.74683C108.538 2.74968 109.69 2.86105 111.606 3.18374L110.648 5.95372C108.317 5.91374 106.317 5.42542 104.526 6.1479C103.348 6.94748 102.738 9.06351 104.882 9.2577C106.261 9.61751 108.467 10.2886 108.908 11.3595C109.961 13.3327 108.018 17.4277 106.246 18.4557C103.667 20.2319 99.4888 19.658 96.3727 19.1953L97.353 16.4254C99.2571 16.5539 100.949 16.6195 102.433 16.6195L102.43 16.6224ZM88.0075 3.01526H98.6497L97.6637 6.10221H90.536L89.293 9.9916H96.0845L95.1381 12.9586H88.3466L87.273 16.3111H94.4714L93.4854 19.3981H82.7726L88.0104 3.01812L88.0075 3.01526ZM76.0997 3.01526H79.569L75.3172 16.3083H81.6313L80.6425 19.3952H70.862L76.0997 3.01526Z" fill="#682F76"/>
</g>
<defs>
<clipPath id="clip0_0_1">
<rect width="1440" height="895" fill="white" transform="translate(-944 -157)"/>
</clipPath>
</defs>
</svg>
