<svg width="16" height="16" viewBox="0 0 16 16" fill="none" xmlns="http://www.w3.org/2000/svg">
<path fill-rule="evenodd" clip-rule="evenodd" d="M11.7688 10.4311C11.7033 10.3656 11.3918 10.6865 11.3264 10.621C11.2444 10.539 11.3264 9.98855 11.3264 9.98855C12.1116 8.91753 12.5323 7.62269 12.5264 6.29466C12.5114 2.82804 9.70757 0.0200861 6.24098 6.36806e-05C4.58202 -0.00744216 2.98896 0.648846 1.81669 1.82272C0.644426 2.9966 -0.00967467 4.59056 0.000108177 6.24951C0.0150914 9.71645 2.81922 12.5247 6.28613 12.5447C7.61958 12.5505 8.91914 12.1249 9.99088 11.3315L9.99545 11.328C9.99545 11.328 10.5012 11.2493 10.5799 11.328C10.6388 11.387 10.352 11.6847 10.4156 11.7484C11.8425 13.1761 14.3722 15.7071 14.3722 15.7071C14.6089 15.9554 14.9615 16.0559 15.2934 15.9696C15.6254 15.8834 15.8845 15.6241 15.9705 15.292C16.0564 14.96 15.9556 14.6075 15.7072 14.371C15.7072 14.371 13.0816 11.7444 11.7688 10.4311ZM6.2789 11.2893C3.50552 11.2734 1.26225 9.02704 1.25008 6.25364C1.24259 4.92666 1.76592 3.65175 2.70356 2.71271C3.64119 1.77368 4.91533 1.24846 6.24232 1.25397C9.0157 1.26993 11.259 3.51625 11.2711 6.28965C11.2786 7.61663 10.7553 8.89154 9.81766 9.83058C8.88002 10.7696 7.60589 11.2948 6.2789 11.2893Z" fill="#757D8A"/>
</svg>
